<mxfile host="Electron" agent="Mozilla/5.0 (X11; Linux x86_64) AppleWebKit/537.36 (KHTML, like Gecko) draw.io/24.7.17 Chrome/128.0.6613.36 Electron/32.0.1 Safari/537.36" version="24.7.17">
  <diagram name="Page-1" id="lbGV1S6AnXvofU3HUzbX">
    <mxGraphModel dx="1434" dy="843" grid="1" gridSize="10" guides="1" tooltips="1" connect="1" arrows="1" fold="1" page="1" pageScale="1" pageWidth="1169" pageHeight="827" math="1" shadow="0">
      <root>
        <mxCell id="0" />
        <mxCell id="1" parent="0" />
        <mxCell id="Og-qgKN78IRizfEA-ZPS-1" value="$$0$$" style="rounded=0;whiteSpace=wrap;html=1;fillColor=#FFCCCC;" parent="1" vertex="1">
          <mxGeometry x="51" y="300" width="30" height="30" as="geometry" />
        </mxCell>
        <mxCell id="Og-qgKN78IRizfEA-ZPS-2" value="$$0$$" style="rounded=0;whiteSpace=wrap;html=1;fillColor=#CCFFE6;" parent="1" vertex="1">
          <mxGeometry x="81" y="300" width="30" height="30" as="geometry" />
        </mxCell>
        <mxCell id="Og-qgKN78IRizfEA-ZPS-3" value="$$1$$" style="rounded=0;whiteSpace=wrap;html=1;fillColor=#CCFFE6;" parent="1" vertex="1">
          <mxGeometry x="111" y="300" width="30" height="30" as="geometry" />
        </mxCell>
        <mxCell id="Og-qgKN78IRizfEA-ZPS-4" value="$$1$$" style="rounded=0;whiteSpace=wrap;html=1;fillColor=#CCFFE6;" parent="1" vertex="1">
          <mxGeometry x="141" y="300" width="30" height="30" as="geometry" />
        </mxCell>
        <mxCell id="Og-qgKN78IRizfEA-ZPS-5" value="$$1$$" style="rounded=0;whiteSpace=wrap;html=1;fillColor=#CCFFE6;" parent="1" vertex="1">
          <mxGeometry x="171" y="300" width="30" height="30" as="geometry" />
        </mxCell>
        <mxCell id="Og-qgKN78IRizfEA-ZPS-6" value="$$0$$" style="rounded=0;whiteSpace=wrap;html=1;fillColor=#CCFFE6;" parent="1" vertex="1">
          <mxGeometry x="201" y="300" width="30" height="30" as="geometry" />
        </mxCell>
        <mxCell id="Og-qgKN78IRizfEA-ZPS-7" value="$$1$$" style="rounded=0;whiteSpace=wrap;html=1;fillColor=#CCFFE6;" parent="1" vertex="1">
          <mxGeometry x="231" y="300" width="30" height="30" as="geometry" />
        </mxCell>
        <mxCell id="Og-qgKN78IRizfEA-ZPS-8" value="$$1$$" style="rounded=0;whiteSpace=wrap;html=1;fillColor=#CCFFE6;" parent="1" vertex="1">
          <mxGeometry x="261" y="300" width="30" height="30" as="geometry" />
        </mxCell>
        <mxCell id="Og-qgKN78IRizfEA-ZPS-9" value="$$0$$" style="rounded=0;whiteSpace=wrap;html=1;fillColor=#CCFFE6;" parent="1" vertex="1">
          <mxGeometry x="291" y="300" width="30" height="30" as="geometry" />
        </mxCell>
        <mxCell id="Og-qgKN78IRizfEA-ZPS-10" value="$$0$$" style="rounded=0;whiteSpace=wrap;html=1;fillColor=#CCE5FF;" parent="1" vertex="1">
          <mxGeometry x="350" y="300" width="30" height="30" as="geometry" />
        </mxCell>
        <mxCell id="Og-qgKN78IRizfEA-ZPS-11" value="$$0$$" style="rounded=0;whiteSpace=wrap;html=1;fillColor=#CCE5FF;" parent="1" vertex="1">
          <mxGeometry x="380" y="300" width="30" height="30" as="geometry" />
        </mxCell>
        <mxCell id="Og-qgKN78IRizfEA-ZPS-12" value="$$0$$" style="rounded=0;whiteSpace=wrap;html=1;fillColor=#CCE5FF;" parent="1" vertex="1">
          <mxGeometry x="410" y="300" width="30" height="30" as="geometry" />
        </mxCell>
        <mxCell id="Og-qgKN78IRizfEA-ZPS-13" value="$$1$$" style="rounded=0;whiteSpace=wrap;html=1;fillColor=#CCE5FF;" parent="1" vertex="1">
          <mxGeometry x="440" y="300" width="30" height="30" as="geometry" />
        </mxCell>
        <mxCell id="Og-qgKN78IRizfEA-ZPS-14" value="$$0$$" style="rounded=0;whiteSpace=wrap;html=1;fillColor=#CCE5FF;" parent="1" vertex="1">
          <mxGeometry x="470" y="300" width="30" height="30" as="geometry" />
        </mxCell>
        <mxCell id="Og-qgKN78IRizfEA-ZPS-15" value="$$1$$" style="rounded=0;whiteSpace=wrap;html=1;fillColor=#CCE5FF;" parent="1" vertex="1">
          <mxGeometry x="500" y="300" width="30" height="30" as="geometry" />
        </mxCell>
        <mxCell id="Og-qgKN78IRizfEA-ZPS-16" value="$$1$$" style="rounded=0;whiteSpace=wrap;html=1;fillColor=#CCE5FF;" parent="1" vertex="1">
          <mxGeometry x="530" y="300" width="30" height="30" as="geometry" />
        </mxCell>
        <mxCell id="Og-qgKN78IRizfEA-ZPS-17" value="$$1$$" style="rounded=0;whiteSpace=wrap;html=1;fillColor=#CCE5FF;" parent="1" vertex="1">
          <mxGeometry x="560" y="300" width="30" height="30" as="geometry" />
        </mxCell>
        <mxCell id="Og-qgKN78IRizfEA-ZPS-18" value="$$1$$" style="rounded=0;whiteSpace=wrap;html=1;fillColor=#CCE5FF;" parent="1" vertex="1">
          <mxGeometry x="590" y="300" width="30" height="30" as="geometry" />
        </mxCell>
        <mxCell id="Og-qgKN78IRizfEA-ZPS-19" value="$$1$$" style="rounded=0;whiteSpace=wrap;html=1;fillColor=#CCE5FF;" parent="1" vertex="1">
          <mxGeometry x="620" y="300" width="30" height="30" as="geometry" />
        </mxCell>
        <mxCell id="Og-qgKN78IRizfEA-ZPS-20" value="$$1$$" style="rounded=0;whiteSpace=wrap;html=1;fillColor=#CCE5FF;" parent="1" vertex="1">
          <mxGeometry x="650" y="300" width="30" height="30" as="geometry" />
        </mxCell>
        <mxCell id="Og-qgKN78IRizfEA-ZPS-21" value="$$0$$" style="rounded=0;whiteSpace=wrap;html=1;fillColor=#CCE5FF;" parent="1" vertex="1">
          <mxGeometry x="680" y="300" width="30" height="30" as="geometry" />
        </mxCell>
        <mxCell id="Og-qgKN78IRizfEA-ZPS-22" value="$$1$$" style="rounded=0;whiteSpace=wrap;html=1;fillColor=#CCE5FF;" parent="1" vertex="1">
          <mxGeometry x="710" y="300" width="30" height="30" as="geometry" />
        </mxCell>
        <mxCell id="Og-qgKN78IRizfEA-ZPS-23" value="$$1$$" style="rounded=0;whiteSpace=wrap;html=1;fillColor=#CCE5FF;" parent="1" vertex="1">
          <mxGeometry x="740" y="300" width="30" height="30" as="geometry" />
        </mxCell>
        <mxCell id="Og-qgKN78IRizfEA-ZPS-24" value="$$1$$" style="rounded=0;whiteSpace=wrap;html=1;fillColor=#CCE5FF;" parent="1" vertex="1">
          <mxGeometry x="770" y="300" width="30" height="30" as="geometry" />
        </mxCell>
        <mxCell id="Og-qgKN78IRizfEA-ZPS-25" value="$$0$$" style="rounded=0;whiteSpace=wrap;html=1;fillColor=#CCE5FF;" parent="1" vertex="1">
          <mxGeometry x="800" y="300" width="30" height="30" as="geometry" />
        </mxCell>
        <mxCell id="Og-qgKN78IRizfEA-ZPS-26" value="$$1$$" style="rounded=0;whiteSpace=wrap;html=1;fillColor=#CCE5FF;" parent="1" vertex="1">
          <mxGeometry x="830" y="300" width="30" height="30" as="geometry" />
        </mxCell>
        <mxCell id="Og-qgKN78IRizfEA-ZPS-27" value="$$0$$" style="rounded=0;whiteSpace=wrap;html=1;fillColor=#CCE5FF;" parent="1" vertex="1">
          <mxGeometry x="860" y="300" width="30" height="30" as="geometry" />
        </mxCell>
        <mxCell id="Og-qgKN78IRizfEA-ZPS-28" value="$$0$$" style="rounded=0;whiteSpace=wrap;html=1;fillColor=#CCE5FF;" parent="1" vertex="1">
          <mxGeometry x="890" y="300" width="30" height="30" as="geometry" />
        </mxCell>
        <mxCell id="Og-qgKN78IRizfEA-ZPS-29" value="$$0$$" style="rounded=0;whiteSpace=wrap;html=1;fillColor=#CCE5FF;" parent="1" vertex="1">
          <mxGeometry x="920" y="300" width="30" height="30" as="geometry" />
        </mxCell>
        <mxCell id="Og-qgKN78IRizfEA-ZPS-30" value="$$1$$" style="rounded=0;whiteSpace=wrap;html=1;fillColor=#CCE5FF;" parent="1" vertex="1">
          <mxGeometry x="950" y="300" width="30" height="30" as="geometry" />
        </mxCell>
        <mxCell id="Og-qgKN78IRizfEA-ZPS-31" value="$$0$$" style="rounded=0;whiteSpace=wrap;html=1;fillColor=#CCE5FF;" parent="1" vertex="1">
          <mxGeometry x="980" y="300" width="30" height="30" as="geometry" />
        </mxCell>
        <mxCell id="Og-qgKN78IRizfEA-ZPS-32" value="$$1$$" style="rounded=0;whiteSpace=wrap;html=1;fillColor=#CCE5FF;" parent="1" vertex="1">
          <mxGeometry x="1010" y="300" width="30" height="30" as="geometry" />
        </mxCell>
        <mxCell id="Og-qgKN78IRizfEA-ZPS-33" value="$$\text{sign}$$" style="text;html=1;align=center;verticalAlign=middle;whiteSpace=wrap;rounded=0;" parent="1" vertex="1">
          <mxGeometry x="49" y="270" width="34" height="30" as="geometry" />
        </mxCell>
        <mxCell id="Og-qgKN78IRizfEA-ZPS-34" value="$$\text{integer bits}$$" style="text;html=1;align=center;verticalAlign=middle;whiteSpace=wrap;rounded=0;" parent="1" vertex="1">
          <mxGeometry x="160" y="270" width="79" height="30" as="geometry" />
        </mxCell>
        <mxCell id="Og-qgKN78IRizfEA-ZPS-35" value="$$\text{mantissa or fractional bits}$$" style="text;html=1;align=center;verticalAlign=middle;whiteSpace=wrap;rounded=0;" parent="1" vertex="1">
          <mxGeometry x="610" y="270" width="79" height="30" as="geometry" />
        </mxCell>
        <mxCell id="Og-qgKN78IRizfEA-ZPS-36" value="$$\text{index}$$" style="text;html=1;align=center;verticalAlign=middle;whiteSpace=wrap;rounded=0;" parent="1" vertex="1">
          <mxGeometry x="10" y="330" width="39" height="30" as="geometry" />
        </mxCell>
        <mxCell id="Og-qgKN78IRizfEA-ZPS-37" value="$$31$$" style="text;html=1;align=center;verticalAlign=middle;whiteSpace=wrap;rounded=0;" parent="1" vertex="1">
          <mxGeometry x="51" y="330" width="29" height="30" as="geometry" />
        </mxCell>
        <mxCell id="Og-qgKN78IRizfEA-ZPS-38" value="$$0$$" style="text;html=1;align=center;verticalAlign=middle;whiteSpace=wrap;rounded=0;" parent="1" vertex="1">
          <mxGeometry x="1010" y="330" width="29" height="30" as="geometry" />
        </mxCell>
        <mxCell id="Og-qgKN78IRizfEA-ZPS-39" value="$$30$$" style="text;html=1;align=center;verticalAlign=middle;whiteSpace=wrap;rounded=0;" parent="1" vertex="1">
          <mxGeometry x="81" y="330" width="29" height="30" as="geometry" />
        </mxCell>
        <mxCell id="Og-qgKN78IRizfEA-ZPS-40" value="$$1$$" style="text;html=1;align=center;verticalAlign=middle;whiteSpace=wrap;rounded=0;" parent="1" vertex="1">
          <mxGeometry x="981" y="330" width="29" height="30" as="geometry" />
        </mxCell>
        <mxCell id="Og-qgKN78IRizfEA-ZPS-41" value="&lt;b&gt;$$\cdots$$&lt;/b&gt;" style="text;html=1;align=center;verticalAlign=middle;whiteSpace=wrap;rounded=0;" parent="1" vertex="1">
          <mxGeometry x="111" y="330" width="30" height="30" as="geometry" />
        </mxCell>
        <mxCell id="Og-qgKN78IRizfEA-ZPS-42" value="&lt;b&gt;$$\cdots$$&lt;/b&gt;" style="text;html=1;align=center;verticalAlign=middle;whiteSpace=wrap;rounded=0;" parent="1" vertex="1">
          <mxGeometry x="950" y="330" width="30" height="30" as="geometry" />
        </mxCell>
        <mxCell id="Og-qgKN78IRizfEA-ZPS-43" value="$$\text{Fixed-Point Number Scheme}$$" style="text;html=1;align=center;verticalAlign=middle;whiteSpace=wrap;rounded=0;" parent="1" vertex="1">
          <mxGeometry x="390" y="230" width="250" height="30" as="geometry" />
        </mxCell>
        <mxCell id="Og-qgKN78IRizfEA-ZPS-44" value="$$=0.00213571$$" style="text;html=1;align=center;verticalAlign=middle;whiteSpace=wrap;rounded=0;" parent="1" vertex="1">
          <mxGeometry x="1040" y="300" width="90" height="30" as="geometry" />
        </mxCell>
        <mxCell id="1GDDNmCbKsQZLfKoXdwN-1" value="" style="shape=ellipse;fillColor=#000000;strokeColor=none;html=1;sketch=0;" vertex="1" parent="1">
          <mxGeometry x="330" y="310" width="10" height="10" as="geometry" />
        </mxCell>
        <mxCell id="1GDDNmCbKsQZLfKoXdwN-2" value="$$v$$" style="text;html=1;align=center;verticalAlign=middle;whiteSpace=wrap;rounded=0;" vertex="1" parent="1">
          <mxGeometry x="680" y="390" width="30" height="30" as="geometry" />
        </mxCell>
        <mxCell id="1GDDNmCbKsQZLfKoXdwN-3" value="" style="shape=curlyBracket;whiteSpace=wrap;html=1;rounded=1;labelPosition=left;verticalLabelPosition=middle;align=right;verticalAlign=middle;rotation=-90;strokeWidth=1.618;" vertex="1" parent="1">
          <mxGeometry x="685" y="35" width="20" height="690" as="geometry" />
        </mxCell>
        <mxCell id="1GDDNmCbKsQZLfKoXdwN-4" value="" style="shape=curlyBracket;whiteSpace=wrap;html=1;rounded=1;labelPosition=left;verticalLabelPosition=middle;align=right;verticalAlign=middle;rotation=-90;strokeWidth=1.618;" vertex="1" parent="1">
          <mxGeometry x="192.5" y="262.5" width="20" height="235" as="geometry" />
        </mxCell>
        <mxCell id="1GDDNmCbKsQZLfKoXdwN-5" value="$$u$$" style="text;html=1;align=center;verticalAlign=middle;whiteSpace=wrap;rounded=0;" vertex="1" parent="1">
          <mxGeometry x="187.5" y="390" width="30" height="30" as="geometry" />
        </mxCell>
        <mxCell id="1GDDNmCbKsQZLfKoXdwN-7" value="$$23$$" style="text;html=1;align=center;verticalAlign=middle;whiteSpace=wrap;rounded=0;" vertex="1" parent="1">
          <mxGeometry x="292" y="330" width="29" height="30" as="geometry" />
        </mxCell>
        <mxCell id="1GDDNmCbKsQZLfKoXdwN-8" value="$$22$$" style="text;html=1;align=center;verticalAlign=middle;whiteSpace=wrap;rounded=0;" vertex="1" parent="1">
          <mxGeometry x="351" y="330" width="29" height="30" as="geometry" />
        </mxCell>
        <mxCell id="1GDDNmCbKsQZLfKoXdwN-9" value="&lt;b&gt;$$\cdots$$&lt;/b&gt;" style="text;html=1;align=center;verticalAlign=middle;whiteSpace=wrap;rounded=0;" vertex="1" parent="1">
          <mxGeometry x="380" y="330" width="30" height="30" as="geometry" />
        </mxCell>
      </root>
    </mxGraphModel>
  </diagram>
</mxfile>
